<mxfile host="app.diagrams.net" agent="Mozilla/5.0 (Windows NT 10.0; Win64; x64) AppleWebKit/537.36 (KHTML, like Gecko) Chrome/138.0.0.0 Safari/537.36" version="28.2.0">
  <diagram name="Page-1" id="qwWMDqPwwL-0FblhzmZl">
    <mxGraphModel dx="1310" dy="708" grid="1" gridSize="10" guides="1" tooltips="1" connect="1" arrows="1" fold="1" page="1" pageScale="1" pageWidth="827" pageHeight="1169" math="0" shadow="0">
      <root>
        <mxCell id="0" />
        <mxCell id="1" parent="0" />
        <mxCell id="MXdwCf1FUxcs4CxOkWdv-6" value="" style="ellipse;whiteSpace=wrap;html=1;shadow=1;" vertex="1" parent="1">
          <mxGeometry x="287.5" y="110" width="205" height="90" as="geometry" />
        </mxCell>
        <mxCell id="MXdwCf1FUxcs4CxOkWdv-3" value="stagiaire" style="shape=umlActor;verticalLabelPosition=bottom;verticalAlign=top;html=1;outlineConnect=0;" vertex="1" parent="1">
          <mxGeometry x="30" y="130" width="40" height="75" as="geometry" />
        </mxCell>
        <mxCell id="MXdwCf1FUxcs4CxOkWdv-7" value="&lt;font style=&quot;font-size: 14px;&quot;&gt;Consulter les livres&lt;/font&gt;" style="text;html=1;align=center;verticalAlign=middle;resizable=0;points=[];autosize=1;strokeColor=none;fillColor=none;" vertex="1" parent="1">
          <mxGeometry x="320" y="135" width="140" height="30" as="geometry" />
        </mxCell>
        <mxCell id="MXdwCf1FUxcs4CxOkWdv-9" value="" style="endArrow=none;html=1;rounded=0;entryX=0.012;entryY=0.383;entryDx=0;entryDy=0;entryPerimeter=0;" edge="1" parent="1" target="MXdwCf1FUxcs4CxOkWdv-6">
          <mxGeometry width="50" height="50" relative="1" as="geometry">
            <mxPoint x="90" y="160" as="sourcePoint" />
            <mxPoint x="140" y="110" as="targetPoint" />
            <Array as="points" />
          </mxGeometry>
        </mxCell>
        <mxCell id="MXdwCf1FUxcs4CxOkWdv-10" value="Acteur" style="shape=umlActor;verticalLabelPosition=bottom;verticalAlign=top;html=1;outlineConnect=0;" vertex="1" parent="1">
          <mxGeometry x="80" y="300" width="50" height="80" as="geometry" />
        </mxCell>
        <mxCell id="MXdwCf1FUxcs4CxOkWdv-13" value="" style="swimlane;startSize=0;" vertex="1" parent="1">
          <mxGeometry x="180" y="30" width="530" height="680" as="geometry">
            <mxRectangle x="148" y="40" width="420" height="600" as="alternateBounds" />
          </mxGeometry>
        </mxCell>
        <mxCell id="MXdwCf1FUxcs4CxOkWdv-18" value="" style="ellipse;whiteSpace=wrap;html=1;" vertex="1" parent="MXdwCf1FUxcs4CxOkWdv-13">
          <mxGeometry x="90" y="210" width="200" height="80" as="geometry" />
        </mxCell>
        <mxCell id="MXdwCf1FUxcs4CxOkWdv-19" value="&lt;font style=&quot;font-size: 14px;&quot;&gt;Consulter&amp;nbsp; les seances&amp;nbsp;&lt;/font&gt;&lt;div&gt;&lt;font style=&quot;font-size: 14px;&quot;&gt;de discussion&lt;/font&gt;&lt;/div&gt;" style="text;html=1;align=center;verticalAlign=middle;resizable=0;points=[];autosize=1;strokeColor=none;fillColor=none;" vertex="1" parent="MXdwCf1FUxcs4CxOkWdv-13">
          <mxGeometry x="105" y="225" width="170" height="50" as="geometry" />
        </mxCell>
        <mxCell id="MXdwCf1FUxcs4CxOkWdv-20" value="" style="ellipse;whiteSpace=wrap;html=1;" vertex="1" parent="MXdwCf1FUxcs4CxOkWdv-13">
          <mxGeometry x="90" y="320" width="200" height="80" as="geometry" />
        </mxCell>
        <mxCell id="MXdwCf1FUxcs4CxOkWdv-22" value="&lt;font style=&quot;font-size: 14px;&quot;&gt;Gerer les membres&lt;/font&gt;" style="text;html=1;align=center;verticalAlign=middle;resizable=0;points=[];autosize=1;strokeColor=none;fillColor=none;" vertex="1" parent="MXdwCf1FUxcs4CxOkWdv-13">
          <mxGeometry x="120" y="345" width="140" height="30" as="geometry" />
        </mxCell>
        <mxCell id="MXdwCf1FUxcs4CxOkWdv-27" value="" style="ellipse;whiteSpace=wrap;html=1;" vertex="1" parent="MXdwCf1FUxcs4CxOkWdv-13">
          <mxGeometry x="90" y="420" width="200" height="80" as="geometry" />
        </mxCell>
        <mxCell id="MXdwCf1FUxcs4CxOkWdv-28" value="&lt;font style=&quot;font-size: 14px;&quot;&gt;Gerer les livres&lt;/font&gt;" style="text;html=1;align=center;verticalAlign=middle;resizable=0;points=[];autosize=1;strokeColor=none;fillColor=none;" vertex="1" parent="MXdwCf1FUxcs4CxOkWdv-13">
          <mxGeometry x="125" y="445" width="120" height="30" as="geometry" />
        </mxCell>
        <mxCell id="MXdwCf1FUxcs4CxOkWdv-29" value="&lt;font style=&quot;font-size: 14px;&quot;&gt;Gerer les seances&amp;nbsp;&lt;/font&gt;&lt;div&gt;&lt;font style=&quot;font-size: 14px;&quot;&gt;de discussion&lt;/font&gt;&lt;/div&gt;" style="ellipse;whiteSpace=wrap;html=1;" vertex="1" parent="MXdwCf1FUxcs4CxOkWdv-13">
          <mxGeometry x="90" y="515" width="200" height="80" as="geometry" />
        </mxCell>
        <mxCell id="MXdwCf1FUxcs4CxOkWdv-37" value="" style="ellipse;whiteSpace=wrap;html=1;" vertex="1" parent="MXdwCf1FUxcs4CxOkWdv-13">
          <mxGeometry x="370" y="265" width="143" height="80" as="geometry" />
        </mxCell>
        <mxCell id="MXdwCf1FUxcs4CxOkWdv-38" value="&lt;font style=&quot;font-size: 14px;&quot;&gt;Se connecter&lt;/font&gt;" style="text;html=1;align=center;verticalAlign=middle;resizable=0;points=[];autosize=1;strokeColor=none;fillColor=none;" vertex="1" parent="MXdwCf1FUxcs4CxOkWdv-13">
          <mxGeometry x="386.5" y="290" width="110" height="30" as="geometry" />
        </mxCell>
        <mxCell id="MXdwCf1FUxcs4CxOkWdv-47" value="" style="endArrow=block;dashed=1;endFill=0;endSize=12;html=1;rounded=0;exitX=1;exitY=0.5;exitDx=0;exitDy=0;" edge="1" parent="MXdwCf1FUxcs4CxOkWdv-13" source="MXdwCf1FUxcs4CxOkWdv-18" target="MXdwCf1FUxcs4CxOkWdv-37">
          <mxGeometry width="160" relative="1" as="geometry">
            <mxPoint x="320" y="340" as="sourcePoint" />
            <mxPoint x="480" y="340" as="targetPoint" />
          </mxGeometry>
        </mxCell>
        <mxCell id="MXdwCf1FUxcs4CxOkWdv-48" value="" style="endArrow=block;dashed=1;endFill=0;endSize=12;html=1;rounded=0;exitX=1;exitY=0.5;exitDx=0;exitDy=0;" edge="1" parent="MXdwCf1FUxcs4CxOkWdv-13" source="MXdwCf1FUxcs4CxOkWdv-20" target="MXdwCf1FUxcs4CxOkWdv-37">
          <mxGeometry width="160" relative="1" as="geometry">
            <mxPoint x="300" y="370" as="sourcePoint" />
            <mxPoint x="480" y="340" as="targetPoint" />
          </mxGeometry>
        </mxCell>
        <mxCell id="MXdwCf1FUxcs4CxOkWdv-49" value="" style="endArrow=block;dashed=1;endFill=0;endSize=12;html=1;rounded=0;exitX=0.95;exitY=0.25;exitDx=0;exitDy=0;exitPerimeter=0;entryX=0.364;entryY=0.963;entryDx=0;entryDy=0;entryPerimeter=0;" edge="1" parent="MXdwCf1FUxcs4CxOkWdv-13" source="MXdwCf1FUxcs4CxOkWdv-27" target="MXdwCf1FUxcs4CxOkWdv-37">
          <mxGeometry width="160" relative="1" as="geometry">
            <mxPoint x="320" y="340" as="sourcePoint" />
            <mxPoint x="480" y="340" as="targetPoint" />
          </mxGeometry>
        </mxCell>
        <mxCell id="MXdwCf1FUxcs4CxOkWdv-51" value="&amp;lt;&amp;lt;includ&amp;gt;&amp;gt;" style="text;html=1;align=center;verticalAlign=middle;resizable=0;points=[];autosize=1;strokeColor=none;fillColor=none;" vertex="1" parent="MXdwCf1FUxcs4CxOkWdv-13">
          <mxGeometry x="360" y="160" width="80" height="30" as="geometry" />
        </mxCell>
        <mxCell id="MXdwCf1FUxcs4CxOkWdv-52" value="&amp;lt;&amp;lt;includ&amp;gt;&amp;gt;" style="text;html=1;align=center;verticalAlign=middle;resizable=0;points=[];autosize=1;strokeColor=none;fillColor=none;" vertex="1" parent="MXdwCf1FUxcs4CxOkWdv-13">
          <mxGeometry x="300" y="235" width="80" height="30" as="geometry" />
        </mxCell>
        <mxCell id="MXdwCf1FUxcs4CxOkWdv-2" value="&lt;font style=&quot;font-size: 18px;&quot;&gt;Application de gestion du club de lecture&lt;/font&gt;" style="text;html=1;align=center;verticalAlign=middle;resizable=0;points=[];autosize=1;strokeColor=none;fillColor=none;" vertex="1" parent="MXdwCf1FUxcs4CxOkWdv-13">
          <mxGeometry x="75" y="10" width="350" height="40" as="geometry" />
        </mxCell>
        <mxCell id="MXdwCf1FUxcs4CxOkWdv-23" value="" style="endArrow=none;html=1;rounded=0;entryX=0;entryY=0.5;entryDx=0;entryDy=0;" edge="1" parent="1" source="MXdwCf1FUxcs4CxOkWdv-10" target="MXdwCf1FUxcs4CxOkWdv-18">
          <mxGeometry width="50" height="50" relative="1" as="geometry">
            <mxPoint x="130" y="325" as="sourcePoint" />
            <mxPoint x="180" y="275" as="targetPoint" />
          </mxGeometry>
        </mxCell>
        <mxCell id="MXdwCf1FUxcs4CxOkWdv-30" value="" style="endArrow=none;html=1;rounded=0;entryX=0;entryY=0.5;entryDx=0;entryDy=0;" edge="1" parent="1" target="MXdwCf1FUxcs4CxOkWdv-20">
          <mxGeometry width="50" height="50" relative="1" as="geometry">
            <mxPoint x="70" y="497.86516853932585" as="sourcePoint" />
            <mxPoint x="130" y="390" as="targetPoint" />
            <Array as="points" />
          </mxGeometry>
        </mxCell>
        <mxCell id="MXdwCf1FUxcs4CxOkWdv-31" value="" style="endArrow=none;html=1;rounded=0;entryX=0;entryY=0.5;entryDx=0;entryDy=0;" edge="1" parent="1" target="MXdwCf1FUxcs4CxOkWdv-27">
          <mxGeometry width="50" height="50" relative="1" as="geometry">
            <mxPoint x="70" y="507.9775280898875" as="sourcePoint" />
            <mxPoint x="130" y="410" as="targetPoint" />
          </mxGeometry>
        </mxCell>
        <mxCell id="MXdwCf1FUxcs4CxOkWdv-32" value="" style="endArrow=none;html=1;rounded=0;entryX=0;entryY=0.5;entryDx=0;entryDy=0;" edge="1" parent="1" target="MXdwCf1FUxcs4CxOkWdv-29">
          <mxGeometry width="50" height="50" relative="1" as="geometry">
            <mxPoint x="70" y="517.5842696629213" as="sourcePoint" />
            <mxPoint x="140" y="480" as="targetPoint" />
          </mxGeometry>
        </mxCell>
        <mxCell id="MXdwCf1FUxcs4CxOkWdv-33" value="" style="endArrow=classic;html=1;rounded=0;" edge="1" parent="1">
          <mxGeometry width="50" height="50" relative="1" as="geometry">
            <mxPoint x="50" y="450" as="sourcePoint" />
            <mxPoint x="40" y="250" as="targetPoint" />
          </mxGeometry>
        </mxCell>
        <mxCell id="MXdwCf1FUxcs4CxOkWdv-34" value="" style="endArrow=classic;html=1;rounded=0;" edge="1" parent="1">
          <mxGeometry width="50" height="50" relative="1" as="geometry">
            <mxPoint x="100" y="290" as="sourcePoint" />
            <mxPoint x="80" y="240" as="targetPoint" />
          </mxGeometry>
        </mxCell>
        <mxCell id="MXdwCf1FUxcs4CxOkWdv-46" value="" style="endArrow=block;dashed=1;endFill=0;endSize=12;html=1;rounded=0;exitX=1;exitY=0.5;exitDx=0;exitDy=0;entryX=0.378;entryY=0.025;entryDx=0;entryDy=0;entryPerimeter=0;" edge="1" parent="1" source="MXdwCf1FUxcs4CxOkWdv-6" target="MXdwCf1FUxcs4CxOkWdv-37">
          <mxGeometry width="160" relative="1" as="geometry">
            <mxPoint x="500" y="160" as="sourcePoint" />
            <mxPoint x="610" y="290" as="targetPoint" />
          </mxGeometry>
        </mxCell>
        <mxCell id="MXdwCf1FUxcs4CxOkWdv-50" value="" style="endArrow=block;dashed=1;endFill=0;endSize=12;html=1;rounded=0;exitX=1;exitY=0.5;exitDx=0;exitDy=0;" edge="1" parent="1" source="MXdwCf1FUxcs4CxOkWdv-29">
          <mxGeometry width="160" relative="1" as="geometry">
            <mxPoint x="500" y="370" as="sourcePoint" />
            <mxPoint x="660" y="370" as="targetPoint" />
          </mxGeometry>
        </mxCell>
        <mxCell id="MXdwCf1FUxcs4CxOkWdv-53" value="&amp;lt;&amp;lt;includ&amp;gt;&amp;gt;" style="text;html=1;align=center;verticalAlign=middle;resizable=0;points=[];autosize=1;strokeColor=none;fillColor=none;" vertex="1" parent="1">
          <mxGeometry x="460" y="348" width="80" height="30" as="geometry" />
        </mxCell>
        <mxCell id="MXdwCf1FUxcs4CxOkWdv-54" value="&amp;lt;&amp;lt;includ&amp;gt;&amp;gt;" style="text;html=1;align=center;verticalAlign=middle;resizable=0;points=[];autosize=1;strokeColor=none;fillColor=none;" vertex="1" parent="1">
          <mxGeometry x="450" y="418" width="80" height="30" as="geometry" />
        </mxCell>
        <mxCell id="MXdwCf1FUxcs4CxOkWdv-55" value="&amp;lt;&amp;lt;includ&amp;gt;&amp;gt;" style="text;html=1;align=center;verticalAlign=middle;resizable=0;points=[];autosize=1;strokeColor=none;fillColor=none;" vertex="1" parent="1">
          <mxGeometry x="490" y="468" width="80" height="30" as="geometry" />
        </mxCell>
        <mxCell id="MXdwCf1FUxcs4CxOkWdv-59" value="Administrateur" style="shape=umlActor;verticalLabelPosition=bottom;verticalAlign=top;html=1;" vertex="1" parent="1">
          <mxGeometry x="30" y="468" width="40" height="90" as="geometry" />
        </mxCell>
      </root>
    </mxGraphModel>
  </diagram>
</mxfile>
